<svg version="1.1" xmlns="http://www.w3.org/2000/svg" xmlns:xlink="http://www.w3.org/1999/xlink" width="534.41546" height="398.18478" viewBox="0,0,534.41546,398.18478"><g transform="translate(23.85525,17.15216)"><g data-paper-data="{&quot;isPaintingLayer&quot;:true}" fill-rule="nonzero" stroke-linecap="butt" stroke-linejoin="miter" stroke-miterlimit="10" stroke-dasharray="" stroke-dashoffset="0" style="mix-blend-mode: normal"><path d="M499.99663,307.62541c2.52857,9.64396 -0.3851,16.0529 -2.41969,25.51083c-0.83199,3.86754 -0.47996,8.07602 -1.34591,11.91093c-2.57368,11.39775 -12.94589,22.83916 -23.96952,26.56005c-14.18077,4.78654 -33.61429,2.15663 -47.01226,2.12998c-22.98361,-0.04571 -45.96744,-0.07417 -68.95097,0c-18.78834,0.06063 -37.53328,1.58087 -56.37424,1.43678c-11.21723,-0.08579 -22.434,-1.79732 -33.64448,-1.9157c-24.6735,-0.26055 -49.28904,-1.08618 -73.96048,-0.95785c-8.49176,0.04417 -17.03765,1.39582 -25.53643,1.43678c-30.89012,0.14887 -61.3791,1.31646 -92.27933,1.43678c-9.56216,0.03723 -18.73485,3.27942 -28.13142,4.44911c-12.50464,1.55659 -25.47818,2.14666 -37.8815,0.07602c-14.15994,-2.3639 -27.15015,-10.85649 -29.63085,-25.61887c-2.2505,-13.39251 3.35496,-24.28998 12.43502,-32.58156c-0.26892,-0.2517 -0.53357,-0.50766 -0.79384,-0.76792c-15.85956,-15.85956 -7.1356,-41.63736 -10.66753,-61.20315c-2.07892,-11.51657 -2.44198,-23.33434 -2.80105,-35.00551c-0.35782,-11.63051 -2.05679,-23.21554 0.48548,-34.74967c1.48104,-6.71938 4.4008,-13.40484 8.08156,-19.17512c1.10907,-1.73868 5.78452,-4.7822 5.80074,-6.9256c0.02873,-3.79831 0.03817,-7.59703 0,-11.39525c-0.02365,-2.3532 -1.64971,-5.4173 -2.004,-7.81351c-1.10174,-7.45143 -0.217,-15.34138 -1.8274,-22.71092c-2.78588,-12.74875 -3.25295,-28.79761 -1.52508,-41.1359c1.09935,-7.85019 4.72515,-22.42409 10.29681,-28.16366c0.53143,-0.54744 -0.60673,-2.22854 -0.71829,-3.29576c-0.49986,-4.78154 -0.58505,-9.21395 0,-14.03854c0.59592,-4.91427 4.68169,-8.31267 3.49602,-12.69967c-2.16617,-3.70159 -3.40772,-8.01009 -3.40772,-12.60856c0,-4.98998 1.46195,-9.6385 3.98091,-13.54062c1.54571,-3.10186 3.94195,-5.69746 8.51909,-8.33438c7.48544,-4.31242 18.90635,-3.58999 27.00415,-2.91979c18.36752,1.52014 36.80607,1.63547 55.19419,3.24143c33.8841,2.95933 68.41131,0.98621 102.37057,-0.98848c13.7862,-0.80165 27.63467,-0.3751 41.45001,-0.54246c8.96477,-0.1086 17.9406,-1.30771 26.90186,-1.43678c30.47695,-0.43895 61.02429,-2.30162 91.47484,-2.39463c21.7112,-0.06631 43.42269,-0.05725 65.13392,0c5.05077,0.01332 10.14145,0.8356 15.18662,0.95785c21.17795,0.51317 52.83883,0.09124 58.99428,26.2954c1.30379,5.55031 0.04845,13.37421 -1.57224,18.66846c-0.50429,1.64735 -3.92087,7.67833 -3.89275,8.01839c0.31917,3.85929 2.60813,7.41945 2.73989,11.28967c0.08107,2.38117 0.58151,10.92266 -0.14847,14.03023c-0.22564,0.96059 -1.74161,3.67603 -1.76724,4.82914c-0.21148,9.5152 -0.12439,19.03591 0,28.55264c0.02582,1.97517 3.00134,6.60029 3.54748,8.29442c1.50628,4.67246 2.83432,10.20391 2.83432,15.13537c0,12.85139 -3.24462,26.16942 -1.59254,38.96321c0.24732,1.91525 2.6639,2.81379 3.78426,4.38674c2.91236,4.08885 5.04641,9.58865 5.88256,14.56448c1.20166,7.15094 -0.31475,14.79814 -0.0883,22.02457c0.25864,8.25386 3.08748,16.76826 4.84995,24.74004c1.24735,5.64185 1.84064,11.54682 2.63135,17.27873c2.55445,18.51744 3.03567,47.35615 -10.2825,63.50793c0.4855,1.0705 0.87428,2.14176 1.15015,3.19391z" fill="#000000" stroke="none" stroke-width="0.5"/><text transform="translate(64.65932,201.19382) rotate(-0.30255) scale(1.68897,1.68897)" font-size="40" xml:space="preserve" fill="#ff0000" fill-rule="nonzero" stroke-opacity="0.8" stroke="#ff0000" stroke-width="1" stroke-linecap="butt" stroke-linejoin="miter" stroke-miterlimit="10" stroke-dasharray="" stroke-dashoffset="0" font-family="Sans Serif" font-weight="normal" text-anchor="start" style="mix-blend-mode: normal"><tspan x="0" dy="0">Game over</tspan></text></g></g></svg>