<svg version="1.1" xmlns="http://www.w3.org/2000/svg" xmlns:xlink="http://www.w3.org/1999/xlink" width="512.70442" height="442.29074" viewBox="0,0,512.70442,442.29074"><g transform="translate(7.95301,43.06199)"><g data-paper-data="{&quot;isPaintingLayer&quot;:true}" fill="#000000" fill-rule="nonzero" stroke="none" stroke-width="0.5" stroke-linecap="butt" stroke-linejoin="miter" stroke-miterlimit="10" stroke-dasharray="" stroke-dashoffset="0" style="mix-blend-mode: normal"><path d="M500.83218,169.23564c0.36377,1.54137 0.58487,3.13785 0.64859,4.77472c0.77802,11.95974 -4.20526,25.41266 -9.70278,34.83133c1.8708,3.58541 3.6253,7.05022 4.33138,11.25207c4.40974,26.24192 0.30057,53.21891 0.39063,79.82861c0.01485,4.38951 1.81593,8.89954 2.60938,13.17139c1.62067,8.72558 2.66223,17.56757 4.39062,26.25348c0.84836,4.26335 1.92021,5.94803 0.70529,11.59383c-2.24904,10.45144 -10.07832,17.50697 -19.70529,19.59439l0,4.46455c0,1.19175 0.20847,2.33481 0.59093,3.3947c-1.29776,0.78485 -3.0329,1.13231 -4.20896,2.10852c-0.75256,0.62467 -0.72698,1.89318 -1.45191,2.54971c-0.32714,0.29627 -0.92173,-0.21862 -1.32358,-0.03609c-1.55328,0.70555 -3.01723,1.59966 -4.5525,2.3416c-0.05739,-0.11666 -0.11399,-0.23372 -0.16985,-0.35114c-4.43322,1.33679 -9.02043,2.35604 -13.34819,3.16062c-2.1952,-0.06659 -4.39058,-0.16793 -6.53594,-0.16793c-6.33333,0 -12.66667,0 -19,0c-0.87247,0 -7.70256,-0.02937 -8.38701,0.09666c-4.5257,0.8333 -8.77389,2.15313 -13.21481,3.03247c-1.96191,0.38847 -4.02482,-0.31411 -6,0c-3.83789,0.61033 -7.48092,2.38801 -11.38355,2.91954c-1.62737,0.22164 -3.34618,-0.11374 -4.91247,0.38041c-1.64897,0.52023 -2.94065,1.83171 -4.49567,2.58777c-0.55737,0.271 -1.20867,0.38903 -1.84029,0.53022c-26.88878,0.49454 -53.83276,3.35229 -80.74482,0.27486c-2.32319,-0.26566 -18.68479,-1.63228 -27.08651,-3.34041c-10.33636,-2.10145 -20.57497,-8.06579 -30.99,-6.39744c-7.78384,1.24687 -15.47352,3.02461 -23.22368,4.46609c-24.93782,4.63828 -117.27341,2.45055 -119.72118,2.44984c-0.46873,-0.00014 -0.93114,0.2024 -1.39754,0.15576c-2.89458,-0.28946 -9.53733,-2.19298 -11.00565,-2.79508c-0.7194,-0.29499 -0.97628,-1.21861 -1.55138,-1.74189c-2.3257,-2.11616 -5.0479,-3.81756 -7.13918,-6.16566c-0.74892,-0.8409 -0.068,-2.95332 -1.17344,-3.16782c-8.55508,-1.66005 -17.05735,-3.95186 -25.7553,-4.49122c-20.6736,-1.28197 -41.47177,-0.82747 -62.18368,-0.75665c-0.00777,-0.04533 -0.01532,-0.08764 -0.02254,-0.12679c-0.21699,-3.96573 -0.43128,-8.03437 0.15379,-11.68881c0.37261,-2.32738 1,-4.64297 1,-7c2.00889,-8.03557 1.07493,-16.95747 1.07493,-25.22183c0,-15.33333 0,-30.66667 0,-46c0,-26 0,-52 0,-78c0,-25 0,-50 0,-75c0,-17.66666 0,-35.33334 0,-53c0,-7.76346 1.33715,-17.20299 -1.12913,-24.60182c0,-2.35703 -0.54218,-4.68787 -1,-7c-0.46245,-2.33548 0.12913,-6.06897 0.12913,-8.39818c0,-4.33436 -0.66834,-9.14758 -0.12913,-13.39818c0.2653,-2.09143 1.62426,-3.92557 2,-6c0.4429,-2.44518 0.76649,-4.91173 1.0542,-7.37998c0.29408,-2.52299 -0.45875,-5.11237 -0.0542,-7.62001c0.16789,-1.04063 0.84513,-1.95734 1,-3c0.15718,-1.05817 0.12913,-6.02793 0.12913,-7.60182c0,0 0,-0.8545 -0.24979,-2.06394c1.78605,-4.24241 3.40539,-8.55351 4.78935,-12.93658c1.80752,-5.72451 4.45738,-13.89473 3.82792,-20.66409c24.39978,0.13495 48.80344,0.17059 73.14491,1.7104c10.12742,0.64065 30.7629,4.03171 31.79172,4.17351c3.44504,0.47484 7.90346,1.71485 10.75929,2.52714c1.54309,0.4389 3.16312,2.74051 4.46334,1.80073c1.25563,-0.90755 2.16606,-3.59619 3.44399,-4.46954c6.85858,-4.68727 17.76003,-8.06512 26.02928,-8.07762c67.33326,-0.10173 134.6667,-0.06113 202,0c27.62024,0.02508 55.93969,12.58435 75.35534,32h4.21375c9.3204,-0.3214 18.65023,-0.43592 27.96119,-0.96418c5.17113,-0.29339 17.23361,-1.98263 25.46972,-2.03582c2.95681,-0.0191 5.98379,-0.01787 9.04621,0.00907c-0.17913,1.4925 -0.38625,3.00451 -0.75133,4.58041c-0.75016,3.23818 -1.73729,6.54463 -2.16575,9.8087c-0.8291,6.3162 -0.12913,13.22726 -0.12913,19.60182c0,14.66667 0,29.33333 0,44c0,26 0,52 0,78c0,5.04968 -0.33988,10.362 -0.39771,15.6142c2.99905,3.36692 4.81745,7.33719 5.72989,11.62144z"/><path d=""/><path d=""/></g></g></svg>